
        <svg xmlns="http://www.w3.org/2000/svg" xmlns:xlink="http://www.w3.org/1999/xlink" version="1.1" width="3200" height="1660" viewBox="0 0 3200 1660">
			
			<g transform="scale(10) translate(10, 10)">
				<defs id="SvgjsDefs2169"/><g id="SvgjsG2170" featureKey="rootContainer" transform="matrix(1,0,0,1,0,0)" fill="#000"><path xmlns="http://www.w3.org/2000/svg" fill-rule="evenodd" d=" M0,0 H300 V146 H0,0 z M2,2 H298 V144 H2,2 z M6,6 H294 V140 H6 z M8,8 H292 V138 H6,8 z "/></g><g id="SvgjsG2171" featureKey="nameFeature-0" transform="matrix(1.488438367843628,0,0,1.488438367843628,48.23326142078226,35.25479422685058)" fill="#000"><path d="M7.56 40 c-0.36 0 -0.6 -1.28 -0.28 -1.32 c2.76 -0.36 4.6 -0.92 4.6 -3.08 l0 -19.72 c0 -1 -0.36 -1.32 -1.32 -1.32 l-1.08 0 c-3.8 0 -5.92 0.88 -6.72 2.6 c-0.36 0.8 -1.72 0.68 -1.56 0 c0.36 -1.44 0.68 -2.68 0.92 -4.8 c0.08 -0.76 0.52 -0.72 1.24 -0.64 c1.84 0.2 3.52 0.28 11.12 0.28 s10.28 -0.08 12.2 -0.28 c0.72 -0.08 1.4 -0.12 1.16 0.64 c-0.6 1.88 -1 3.36 -1.24 4.8 c-0.12 0.68 -1.2 0.72 -1.36 0 c-0.4 -1.68 -2.16 -2.6 -5.6 -2.6 l-1.24 0 c-0.96 0 -1.56 0.32 -1.56 1.32 l0 19.72 c0 2.16 1.84 2.72 4.6 3.08 c0.32 0.04 0.08 1.32 -0.28 1.32 l-13.6 0 z M28.886000000000003 40 c-0.32 0 -0.6 -1.16 -0.28 -1.2 c1.2 -0.16 2.76 -0.76 2.76 -3.52 l0 -9.12 c0 -1.92 -1.04 -2.36 -2.72 -2.56 c-0.32 -0.04 -0.16 -1.08 0.16 -1.16 l6.32 -1.76 c0.48 -0.12 0.68 0.2 0.68 0.56 c0 1.16 0.08 2.56 0.96 2 c1.48 -0.96 3.68 -2.56 5 -2.56 c0.56 0 2 1.16 1.88 1.8 c-0.36 1.92 -0.8 3.32 -1.4 3.32 c-0.2 0 -1.16 -1.04 -3.28 -1.04 c-1.6 0 -3.32 0.48 -3.32 2.56 l0 7.96 c0 2.76 1.12 2.96 4.76 3.52 c0.28 0.04 0.16 1.2 -0.64 1.2 l-10.88 0 z M50.492000000000004 40.64 c-2.76 0 -5.48 -1.64 -5.48 -4.88 c0 -2.16 1.28 -3.32 4.16 -4.24 l5.84 -1.88 c1.2 -0.4 1.56 -0.44 1.56 -1.44 l0 -1.6 c0 -2.48 -1.24 -2.76 -2.8 -2.76 c-2.12 0 -4.64 0.56 -6.12 0.72 c-0.36 0.04 -0.6 -0.16 -0.64 -0.44 l-0.08 -0.72 c-0.12 -1.04 5.96 -2.72 9 -2.72 c4.64 0 4.96 3.68 4.96 6.52 l0 8.44 c0 3.36 2.88 2 3.44 2.36 c0.2 0.12 0.28 0.4 0.28 0.56 c0 0.84 -3.4 2.08 -5.08 2.08 c-1.28 0 -2.08 -0.72 -3.04 -2.76 c-3.8 2.32 -4.64 2.76 -6 2.76 z M52.412000000000006 37.68 c2.04 0 4.2 -1.44 4.2 -3.48 l0 -3.12 c-0.24 0.16 -0.2 0.2 -0.96 0.44 l-4.04 1.36 c-1.28 0.44 -1.92 1.12 -1.92 2.32 c0 1.52 1.04 2.48 2.72 2.48 z M85.098 21.4 c0.56 0 0.56 1.32 0.08 1.44 c-1.16 0.32 -2.2 1.44 -3.48 4.28 l-3.96 9.04 c-0.84 1.92 -1.12 2.92 -1.4 3.92 l-2.28 0.4 l-5.8 -13.32 c-1.28 -3 -2.36 -4 -3.52 -4.32 c-0.48 -0.12 -0.48 -1.44 0.04 -1.44 l8.12 0 c0.6 0 0.6 1.16 0.08 1.44 c-0.96 0.52 -1.36 1.52 -0.16 4.32 l3.24 7.56 l3.24 -7.6 c1.24 -2.84 1 -4.08 -0.8 -4.28 c-0.44 -0.04 -0.44 -1.44 0.04 -1.44 l6.56 0 z M102.864 36.92 c0.36 -0.08 0.68 1 0.44 1.12 c-1.56 0.76 -4.8 2.6 -5.56 2.6 c-4.92 0 -11.24 -2.32 -11.24 -9.4 c0 -4.76 2.92 -10.56 10.08 -10.56 c6.04 0 6.8 4.32 6.8 6 c0 1.04 -0.32 2.6 -0.72 3.52 l-11.88 0.32 c0.76 4.96 4.8 7.04 7.96 7.04 c0.36 0 2.08 -0.2 4.12 -0.64 z M95.18400000000001 23.24 c-3.16 0 -4.4 2.16 -4.52 5.2 l8.68 -0.28 c0.4 -2.16 -0.64 -4.92 -4.16 -4.92 z M105.19000000000001 40 c-0.32 0 -0.6 -1.16 -0.28 -1.2 c1.2 -0.16 2.72 -0.72 2.72 -3.04 l0 -17.6 c0 -4.4 -0.6 -5.24 -3.08 -5.52 c-0.32 -0.04 -0.2 -1.08 0.08 -1.12 l7.44 -1.6 c0.36 -0.08 0.68 0.2 0.56 0.72 c-0.28 1.28 -0.72 3.84 -0.72 9.12 l0 16 c0 2.32 1.52 2.88 2.76 3.04 c0.28 0.04 0.04 1.2 -0.28 1.2 l-9.2 0 z M125.676 40.64 c-5.56 0 -9.72 -4 -9.72 -9.8 c0 -5.64 4 -10.16 9.88 -10.16 c5.56 0 9.72 4 9.72 9.8 c0 5.64 -3.96 10.16 -9.88 10.16 z M126.83600000000001 38.24 c1.96 0 4.36 -1.2 4.36 -5.8 c0 -5.24 -2.84 -9.36 -6.56 -9.36 c-1.92 0 -4.32 1.2 -4.32 5.76 c0 5.28 2.84 9.4 6.52 9.4 z"/></g>
			</g>
		</svg>
	